<svg xmlns="http://www.w3.org/2000/svg" width="34.458" height="25.844" viewBox="0 0 34.458 25.844"><defs><style>.a{fill:#eceff1;}.b{fill:#cfd8dc;}.c{fill:#f44336;}</style></defs><rect class="a" width="26" height="25" transform="translate(3.641 0.128)"/><path class="b" d="M256,158.613l12.922,10.2V148.672Z" transform="translate(-238.771 -142.973)"/><path class="c" d="M31.228,64H30.151L17.229,74.2,4.307,64H3.23A3.232,3.232,0,0,0,0,67.23V86.613a3.232,3.232,0,0,0,3.23,3.23H4.307V69.7l12.922,9.939L30.151,69.7V89.844h1.077a3.232,3.232,0,0,0,3.23-3.23V67.23A3.232,3.232,0,0,0,31.228,64Z" transform="translate(0 -64)"/></svg>