<svg xmlns="http://www.w3.org/2000/svg" width="27.716" height="27.716" viewBox="0 0 27.716 27.716"><defs><style>.a{fill:#55acee;}.b{fill:#f1f2f2;}</style></defs><circle class="a" cx="13.858" cy="13.858" r="13.858" transform="translate(0 0)"/><g transform="translate(6.201 8.406)"><path class="b" d="M41.249,35.581a6.609,6.609,0,0,1-1.9.521A3.321,3.321,0,0,0,40.8,34.27a6.631,6.631,0,0,1-2.1.8A3.315,3.315,0,0,0,33.054,38.1a9.4,9.4,0,0,1-6.828-3.461,3.316,3.316,0,0,0,1.025,4.423,3.289,3.289,0,0,1-1.5-.415c0,.014,0,.028,0,.042a3.314,3.314,0,0,0,2.657,3.248,3.325,3.325,0,0,1-1.5.057,3.316,3.316,0,0,0,3.094,2.3,6.687,6.687,0,0,1-4.9,1.372,9.42,9.42,0,0,0,14.5-7.937q0-.215-.01-.428a6.717,6.717,0,0,0,1.653-1.714Z" transform="translate(-25.103 -34.028)"/></g></svg>